<svg width="29" height="24" viewBox="0 0 29 24" fill="none" xmlns="http://www.w3.org/2000/svg">
<path d="M19.3899 22.7143V20.3334C19.3899 19.0704 18.8973 17.8592 18.0205 16.9662C17.1437 16.0732 15.9545 15.5715 14.7146 15.5715H6.53275C5.29277 15.5715 4.10359 16.0732 3.22679 16.9662C2.35 17.8592 1.85742 19.0704 1.85742 20.3334V22.7143M20.5587 10.8096L22.8964 13.1905L27.5717 8.42862M15.299 6.04767C15.299 8.6776 13.2058 10.8096 10.6237 10.8096C8.04154 10.8096 5.94833 8.6776 5.94833 6.04767C5.94833 3.41774 8.04154 1.28577 10.6237 1.28577C13.2058 1.28577 15.299 3.41774 15.299 6.04767Z" stroke="white" stroke-width="2.12553" stroke-linecap="round" stroke-linejoin="round"/>
</svg>
