<svg width="26" height="24" viewBox="0 0 26 24" fill="none" xmlns="http://www.w3.org/2000/svg">
<path d="M18.8707 8.78577H19.9252C21.0438 8.78577 22.1166 9.2373 22.9075 10.041C23.6985 10.8448 24.1429 11.9348 24.1429 13.0715C24.1429 14.2081 23.6985 15.2982 22.9075 16.1019C22.1166 16.9057 21.0438 17.3572 19.9252 17.3572H18.8707M18.8707 8.78577H2V18.4286C2 19.5653 2.44436 20.6554 3.23533 21.4591C4.0263 22.2628 5.09909 22.7143 6.21769 22.7143H14.6531C15.7717 22.7143 16.8444 22.2628 17.6354 21.4591C18.4264 20.6554 18.8707 19.5653 18.8707 18.4286V8.78577ZM6.21769 1.28577V4.50005M10.4354 1.28577V4.50005M14.6531 1.28577V4.50005" stroke="white" stroke-width="2.12553" stroke-linecap="round" stroke-linejoin="round"/>
</svg>
